<svg
  width="244"
  height="201"
  viewBox="0 0 244 201"
  fill="none"
  xmlns="http://www.w3.org/2000/svg"
>
<g clip-path="url(#clip0_1_2)">
<path
      d="M98.2384 196.78C98.2384 199.101 83.8395 201 66.0361 201C48.2326 201 33.8337 199.101 33.8337 196.78C33.8337 194.459 48.2326 192.561 66.0361 192.561C83.8395 192.561 98.2384 194.389 98.2384 196.78Z"
      fill="#AEE4ED"
    />
<path
      d="M211.443 194.67C229.424 194.67 244 193.253 244 191.506C244 189.758 229.424 188.341 211.443 188.341C193.462 188.341 178.886 189.758 178.886 191.506C178.886 193.253 193.462 194.67 211.443 194.67Z"
      fill="#AEE4ED"
    />
<path
      d="M10.0721 155.779H6.24186V151.981H3.83023V155.779H0V158.17H3.83023V161.967H6.24186V158.17H10.0721V155.779Z"
      fill="#30C5CC"
    />
<path
      d="M13.5477 148.816C13.5477 150.082 12.4837 151.137 11.207 151.137C9.93022 151.137 8.86627 150.082 8.86627 148.816C8.86627 147.55 9.93022 146.495 11.207 146.495C12.4837 146.425 13.5477 147.48 13.5477 148.816Z"
      fill="#3D9CFF"
    />
<path
      d="M211.372 179.198H31.0674C23.8326 179.198 17.9453 173.361 17.9453 166.187V27.9909C17.9453 20.8174 23.8326 14.9801 31.0674 14.9801H211.372C218.607 14.9801 224.494 20.8174 224.494 27.9909V166.187C224.494 173.361 218.607 179.198 211.372 179.198Z"
      fill="#30C5CC"
    />
<path
      d="M32.6988 173.361C28.0174 173.361 24.1872 169.563 24.1872 164.921V29.3271C24.1872 24.6854 28.0174 20.8877 32.6988 20.8877H209.741C214.422 20.8877 218.252 24.6854 218.252 29.3271V164.921C218.252 169.563 214.422 173.361 209.741 173.361H32.6988Z"
      fill="#0B9B9B"
    />
<path
      d="M207.684 168.93H34.7558C31.7058 168.93 29.2233 166.469 29.2233 163.444V30.7337C29.2233 27.7096 31.7058 25.2481 34.7558 25.2481H207.684C210.734 25.2481 213.216 27.7096 213.216 30.7337V163.515C213.145 166.539 210.734 168.93 207.684 168.93Z"
      fill="#C6F4FF"
    />
<path
      d="M5.53255 168.649C9.6465 175.4 17.1651 179.972 25.7477 179.972H216.763C225.274 179.972 232.793 175.4 236.978 168.649H5.53255Z"
      fill="#0B9B9B"
    />
<path
      d="M8.01511 171.954H234.424C235.347 170.899 236.198 169.844 236.907 168.649H5.53255C6.24185 169.844 7.09301 170.899 8.01511 171.954Z"
      fill="#30C5CC"
    />
<path d="M95.1175 110.698H43.693V139.251H95.1175V110.698Z" fill="#DB5A28" />
<path d="M113.417 37.626H94.0535V40.2985H113.417V37.626Z" fill="#30C5CC" />
<path d="M80.7895 37.626H69.0151V40.2985H80.7895V37.626Z" fill="#30C5CC" />
<path d="M65.4686 37.626H42.0616V40.2985H65.4686V37.626Z" fill="#30C5CC" />
<path d="M89.6558 37.626H84.5488V40.2985H89.6558V37.626Z" fill="#30C5CC" />
<path d="M130.086 37.626H118.312V40.2985H130.086V37.626Z" fill="#30C5CC" />
<path d="M101.288 45.3621H94.0535V48.0346H101.288V45.3621Z" fill="#30C5CC" />
<path d="M111.431 45.3621H104.197V48.0346H111.431V45.3621Z" fill="#30C5CC" />
<path d="M68.7314 45.3621H56.957V48.0346H68.7314V45.3621Z" fill="#30C5CC" />
<path d="M53.6232 45.3621H42.0616V48.0346H53.6232V45.3621Z" fill="#30C5CC" />
<path d="M91.5 45.3621H72.0651V48.0346H91.5V45.3621Z" fill="#30C5CC" />
<path
      d="M76.1791 191.928C74.9733 188.06 72.5616 171.603 72.0651 165.132C71.9233 163.796 56.8151 157.888 56.8151 157.888C47.9488 157.677 43.4093 161.124 43.4093 161.124L64.6884 168.227C64.6884 177.721 72.8454 192.068 72.8454 192.068L76.1791 191.928Z"
      fill="#2F2F8E"
    />
<path
      d="M57.95 170.126L51.6372 191.928L55.2547 192.701C56.8151 187.567 65.8942 169.915 66.1779 167.805C66.2488 166.89 66.2488 166.187 65.8942 165.976C65.5395 165.695 55.3965 159.647 52.4174 159.014C48.4453 158.099 42.5581 156.693 42.5581 156.693C42.5581 156.693 39.2244 160.139 39.8628 165.765C40.4302 171.321 57.95 170.126 57.95 170.126Z"
      fill="#4C49A2"
    />
<path
      d="M49.3674 131.726C49.3674 131.726 42.4163 132.359 42.1325 134.188C41.8488 136.086 45.4663 147.902 45.4663 147.902L41.9198 157.185C41.9198 157.185 51.9209 159.647 56.7442 157.818C57.2407 158.029 58.0209 148.042 58.0209 148.042L59.7232 143.119L61.9221 150.504L66.9581 157.537L70.2918 154.864L66.6035 148.464C66.6035 148.464 60.9291 135.594 59.4395 134.117C56.6023 131.445 49.3674 131.726 49.3674 131.726Z"
      fill="white"
    />
<path
      d="M54.9 132.218L54.3325 125.185H49.1546V131.796C48.5163 131.867 49.8639 137.141 54.0488 137.141C54.0488 137.141 55.9639 136.438 54.9 132.218Z"
      fill="#E67750"
    />
<path
      d="M44.3314 144.174C44.9698 146.284 45.3954 147.902 45.3954 147.902L41.8488 157.185C41.8488 157.185 49.4384 159.014 54.6163 158.31C54.1198 157.959 48.0198 153.88 47.7361 152.121C47.1686 148.394 44.3314 144.174 44.3314 144.174Z"
      fill="#EFEFEF"
    />
<path
      d="M59.5105 118.082C59.0849 116.254 56.2477 115.761 51.7081 116.254C48.6581 116.605 47.9488 119.418 47.8779 121.458C47.807 121.458 47.807 121.458 47.736 121.458C46.6721 121.81 45.9628 122.794 45.9628 123.92C45.9628 124.482 46.1756 124.974 46.6012 125.396C47.0267 126.029 47.6651 126.451 48.4453 126.592C48.6581 126.592 48.8709 126.592 49.0837 126.592C50.3605 129.194 52.7012 132.5 55.964 132.078C60.7872 128.772 59.5105 118.082 59.5105 118.082Z"
      fill="#FD9E71"
    />
<path
      d="M49.2256 122.794C49.2256 122.794 48.2325 120.403 50.5023 118.786C52.7721 117.098 52.9139 119.559 55.2546 119.911C57.5953 120.262 59.936 120.051 59.7232 121.599C61.1419 118.082 59.0849 116.113 56.7442 114.988C54.4035 113.863 50.786 113.441 48.3035 115.48C45.8209 117.59 46.1046 122.583 46.1046 122.583C47.736 121.739 48.1616 122.372 49.2256 122.794Z"
      fill="#201251"
    />
<path
      d="M48.2326 115.48C48.2326 115.48 46.1756 109.924 42.2035 111.331C38.2314 112.737 40.0046 120.614 39.5791 124.06C39.1535 127.506 36.6709 127.647 35.7488 126.1C34.1174 129.194 40.5721 132.359 42.7 129.405C44.8279 126.381 43.6221 118.856 44.9698 118.082C46.3174 117.309 47.6651 118.293 47.6651 118.293L48.2326 115.48Z"
      fill="#201251"
    />
<path
      d="M42.3453 133.625C40.7139 134.61 37.593 145.932 37.593 147.831C37.593 149.73 52.3465 159.014 52.3465 159.014C52.3465 159.014 53.0558 156.693 54.6163 156.271C54.3326 156.13 43.6221 146.003 43.6221 146.003L46.4593 138.056C46.3884 137.985 46.3884 131.304 42.3453 133.625Z"
      fill="white"
    />
<path
      d="M51.2116 160.42L66.2488 159.928L75.9663 163.515L59.4395 164.429L51.2116 160.42Z"
      fill="#30C5CC"
    />
<path
      d="M59.4395 164.429L51.2116 161.264V160.42L60.1488 163.585L59.4395 164.429Z"
      fill="#0B9B9B"
    />
<path
      d="M59.4395 164.429L64.4046 150.996L80.8605 151.84L75.9663 163.866L59.4395 164.429Z"
      fill="#0B9B9B"
    />
<path
      d="M69.5116 156.904C69.0151 157.888 69.157 158.943 69.8663 159.225C70.5047 159.576 71.4977 159.014 71.9942 158.099C72.4907 157.115 72.3489 156.06 71.6396 155.779C71.0012 155.427 70.0082 155.919 69.5116 156.904Z"
      fill="#30C5CC"
    />
<path
      d="M54.5453 156.201C54.5453 156.201 60.5035 160.913 59.8651 161.194C59.2267 161.475 56.5314 161.475 55.1128 160.702C53.6942 159.928 52.2046 158.943 52.2046 158.943C52.2046 158.943 52.843 156.341 54.5453 156.201Z"
      fill="#FD9E71"
    />
<path
      d="M55.3965 191.576C56.4605 192.631 60.0779 194.248 61.8512 194.67C63.7663 195.163 63.4116 196.71 62.064 196.71C59.2977 196.71 53.2686 196.358 50.2186 196.358C49.7221 194.952 50.5732 193.053 51.4953 191.787C51.7791 191.506 55.1837 191.435 55.3965 191.576Z"
      fill="#201251"
    />
<path
      d="M76.8884 191.576C77.9523 192.631 81.5697 194.248 83.343 194.67C85.2581 195.163 84.9035 196.71 83.5558 196.71C80.7895 196.71 74.7604 196.358 71.7104 196.358C71.2139 194.952 72.0651 193.053 72.9872 191.787C73.2709 191.506 76.7465 191.435 76.8884 191.576Z"
      fill="#201251"
    />
<path d="M58.3756 99.5857H43.9767V103.524H58.3756V99.5857Z" fill="#31D0A8" />
<path d="M95.1174 99.5857H80.7186V103.524H95.1174V99.5857Z" fill="#31D0A8" />
<path d="M76.7465 99.5857H62.3477V103.524H76.7465V99.5857Z" fill="#31D0A8" />
<path
      d="M138.098 23.6151L92.4259 34.7172L96.5974 51.5882L142.27 40.486L138.098 23.6151Z"
      fill="#FEBA40"
    />
<path
      d="M129.079 28.2292L95.3925 36.4177L95.9668 38.74L129.653 30.5516L129.079 28.2292Z"
      fill="#FEDB9B"
    />
<path
      d="M124.558 33.7582L96.4524 40.5902L97.0266 42.9126L125.133 36.0805L124.558 33.7582Z"
      fill="#FEDB9B"
    />
<path
      d="M110.942 41.874L97.5783 45.1225L98.1525 47.4449L111.517 44.1963L110.942 41.874Z"
      fill="#FEDB9B"
    />
<path
      d="M133.164 31.7225L126 33.464L126.574 35.7863L133.739 34.0448L133.164 31.7225Z"
      fill="white"
    />
<path d="M94.7628 53.7313H43.4802V95.2253H94.7628V53.7313Z" fill="white" />
<path d="M199.527 77.6431H98.593V96.3506H199.527V77.6431Z" fill="#4CB0DD" />
<path d="M196.548 80.3859H169.24V93.6781H196.548V80.3859Z" fill="white" />
<path d="M165.409 81.1596H102.281V83.6914H165.409V81.1596Z" fill="#75D5EF" />
<path d="M165.409 85.7309H102.281V88.2628H165.409V85.7309Z" fill="#75D5EF" />
<path d="M144.769 90.3023H102.281V92.8342H144.769V90.3023Z" fill="#75D5EF" />
<path d="M195.626 109.783H98.664V154.935H195.626V109.783Z" fill="white" />
<path d="M195.626 109.783H98.664V117.238H195.626V109.783Z" fill="#FDBE44" />
<path d="M157.04 127.858H101.005V131.656H157.04V127.858Z" fill="#98DBE5" />
<path d="M151.223 134.68H101.005V138.478H151.223V134.68Z" fill="#98DBE5" />
<path d="M134.909 141.431H101.005V145.229H134.909V141.431Z" fill="#98DBE5" />
<path d="M121.22 121.669H101.005V125.467H121.22V121.669Z" fill="#98DBE5" />
<path d="M191.724 121.458H162.43V150.504H191.724V121.458Z" fill="#86D2E8" />
<path
      d="M180.092 135.805C180.517 135.172 180.801 134.399 180.801 133.625V131.374C180.801 129.335 179.099 127.647 177.042 127.647C174.985 127.647 173.283 129.335 173.283 131.374V133.625C173.283 134.469 173.566 135.313 174.063 135.946C170.658 137.141 168.176 140.376 168.176 144.174H186.617C186.759 144.104 186.05 137.493 180.092 135.805Z"
      fill="#F6FFFA"
    />
<path
      d="M103.629 115.621C104.687 115.621 105.544 114.771 105.544 113.722C105.544 112.673 104.687 111.823 103.629 111.823C102.571 111.823 101.714 112.673 101.714 113.722C101.714 114.771 102.571 115.621 103.629 115.621Z"
      fill="#DB5A28"
    />
<path
      d="M109.729 115.621C110.787 115.621 111.644 114.771 111.644 113.722C111.644 112.673 110.787 111.823 109.729 111.823C108.671 111.823 107.814 112.673 107.814 113.722C107.814 114.771 108.671 115.621 109.729 115.621Z"
      fill="#FFE780"
    />
<path
      d="M116.822 115.621C117.88 115.621 118.737 114.771 118.737 113.722C118.737 112.673 117.88 111.823 116.822 111.823C115.764 111.823 114.907 112.673 114.907 113.722C114.907 114.771 115.764 115.621 116.822 115.621Z"
      fill="#1FB288"
    />
<path d="M196.619 35.8677H162.643V69.5553H196.619V35.8677Z" fill="#DB5A28" />
<path
      d="M210.166 185.457C210.166 185.457 210.45 186.372 207.684 187.567C204.917 188.833 202.08 188.341 201.371 189.396C200.662 190.451 200.52 191.435 200.52 191.435H216.124C216.124 191.435 215.983 187.145 214.209 185.246C214.422 185.668 210.166 185.457 210.166 185.457Z"
      fill="#9E472D"
    />
<path
      d="M227.119 185.457C227.119 185.457 227.402 186.301 224.778 187.497C222.153 188.692 219.387 188.271 218.678 189.255C217.969 190.24 217.827 191.224 217.827 191.224H232.793C232.793 191.224 232.651 187.145 230.949 185.317C231.233 185.668 227.119 185.457 227.119 185.457Z"
      fill="#9E472D"
    />
<path
      d="M207.116 104.157L195.767 106.126L187.823 89.2474L200.023 88.2628L207.116 104.157Z"
      fill="white"
    />
<path
      d="M214.919 72.4388C214.919 72.4388 213.429 75.3926 213.429 78.1354C213.429 80.0343 213.642 82.7771 213.784 84.254C213.855 84.8167 214.351 85.1683 214.919 84.9573L217.117 84.254L216.976 87.4892L223.217 87.3485L224.565 74.408C224.636 74.4783 219.387 68.7817 214.919 72.4388Z"
      fill="#FD9E71"
    />
<path
      d="M215.415 79.2607C215.415 79.2607 215.77 76.6585 217.685 77.2211C219.671 77.7838 217.401 80.3156 217.401 80.3156L219.245 83.6211C220.593 84.1134 222.153 84.1134 223.572 83.4804C223.572 83.4804 225.629 77.2211 225.629 75.2519C225.629 73.2827 223.785 71.9465 223.785 71.9465C223.785 71.9465 218.891 69.5553 216.337 69.6959C213.713 69.8366 213.5 72.4388 213.5 72.4388C213.5 72.4388 212.507 74.408 213.5 75.2519C214.564 76.1662 215.415 79.2607 215.415 79.2607Z"
      fill="#201251"
    />
<path
      d="M223.572 85.6606L223.288 87.4188H216.834C216.834 87.4188 218.11 85.4496 223.572 85.6606Z"
      fill="#6AA5CC"
    />
<path
      d="M196.051 101.555C196.051 101.555 196.477 100.148 194.704 99.3044C194.774 98.9528 194.349 97.3352 193.923 96.9836C193.569 96.6319 193.285 98.7418 193.285 98.7418C193.285 98.7418 191.512 95.577 191.015 96.4209C190.59 97.1945 195.058 103.383 195.129 103.665C195.342 103.876 196.051 101.555 196.051 101.555Z"
      fill="#FD9E71"
    />
<path
      d="M212.791 121.88L208.464 158.029L209.315 186.09L214.777 185.739C214.777 185.739 216.337 170.97 216.408 167.312C216.55 163.585 215.415 157.959 215.415 157.959L220.877 135.594L221.799 135.735L222.083 157.748L227.048 185.739L231.587 185.95C231.587 185.95 231.729 171.532 231.303 167.945C230.949 164.359 228.963 157.185 228.963 157.185L230.949 134.399C230.949 134.399 232.935 128.421 229.388 121.669C228.963 121.669 212.791 121.88 212.791 121.88Z"
      fill="#201251"
    />
<path
      d="M216.834 87.4188C216.834 87.4188 209.102 89.8803 207.684 91.2869C206.265 92.6935 202.222 107.111 202.222 107.111L196.122 101.063L194.207 105.423C194.207 105.423 201.371 115.972 203.57 116.254C205.84 116.605 210.876 102.962 210.876 102.962C210.876 102.962 211.301 110.416 212.223 114.144C213.216 118.434 212.72 121.88 212.72 121.88C219.6 123.146 225.487 122.865 229.388 121.599L231.304 107.252C231.304 107.252 233.928 107.533 234.779 106.619C235.63 105.704 231.8 90.8649 230.949 89.6694C230.098 88.5441 223.217 87.3485 223.217 87.3485L216.834 87.4188Z"
      fill="#96C4EA"
    />
<path
      d="M224.352 97.3352C224.281 97.0539 223.856 97.1242 223.856 97.4055C224.069 103.594 223.856 109.643 222.863 115.761C222.792 116.183 223.43 116.394 223.501 115.902C224.849 109.854 225.203 103.454 224.352 97.3352Z"
      fill="#6AA5CC"
    />
<path
      d="M231.445 101.907C231.374 101.696 231.091 101.766 231.091 101.977C231.02 105.564 230.594 109.01 229.885 112.597C229.247 115.761 228.679 118.926 228.892 122.091C228.892 122.513 229.601 122.583 229.601 122.091C229.459 118.364 230.24 114.777 230.878 111.12C231.445 108.096 232.013 104.931 231.445 101.907Z"
      fill="#6AA5CC"
    />
<path
      d="M211.656 101.766C209.599 103.102 208.819 105.634 208.038 107.814C206.974 110.768 205.91 113.652 203.57 115.832C203.215 116.183 203.712 116.676 204.066 116.324C208.393 112.456 208.18 106.197 211.869 101.977C211.94 101.907 211.798 101.696 211.656 101.766Z"
      fill="#6AA5CC"
    />
<path
      d="M229.53 120.544C229.53 120.544 219.104 121.88 212.791 119.911C212.933 119.911 212.791 121.88 212.791 121.88C212.791 121.88 220.806 124.904 230.027 122.513C229.956 122.513 229.53 120.544 229.53 120.544Z"
      fill="#9E472D"
    />
<path
      d="M121.433 162.671C121.433 162.671 120.581 164.57 119.092 164.851C117.602 165.132 113.701 166.047 113.063 166.539C112.424 167.101 112.424 168.508 112.424 168.508H124.837C124.837 168.508 124.837 164.781 124.057 162.811C124.412 162.811 121.433 162.671 121.433 162.671Z"
      fill="#1A133A"
    />
<path
      d="M145.478 162.671C145.478 162.671 144.627 164.57 143.137 164.851C141.648 165.132 137.747 166.047 137.108 166.539C136.47 167.101 136.47 168.508 136.47 168.508H148.953C148.953 168.508 148.953 164.781 148.173 162.811C148.457 162.811 145.478 162.671 145.478 162.671Z"
      fill="#1A133A"
    />
<path
      d="M143.917 41.0721C143.917 41.0721 140.442 40.1578 140.229 40.7204C140.016 41.2831 145.62 42.9006 145.62 42.9006L150.656 56.7554L148.741 61.1861L152.216 64.9136C152.216 64.9136 155.976 59.8499 156.33 58.373C156.614 56.8961 147.393 41.9864 147.393 41.9864C147.393 41.9864 145.549 36.2194 145.265 35.9381C144.981 35.6568 141.648 35.8677 140.938 35.8677C140.158 35.8677 143.137 38.8216 143.137 38.8216L143.917 41.0721Z"
      fill="#E79673"
    />
<path
      d="M130.441 51.3401C130.441 51.3401 128.809 53.661 128.455 56.1225C128.1 58.584 128.597 60.9048 128.597 60.9048L131.647 60.8345V63.6477H137.676C137.676 63.6477 137.817 61.5378 138.03 60.3422C138.243 59.1466 139.945 56.9664 139.945 56.9664L137.25 49.3709L133.349 49.0192L130.441 51.3401Z"
      fill="#E79673"
    />
<path
      d="M131.93 54.9269C131.93 54.9269 132.994 52.4654 134.271 53.3796C135.548 54.2939 133.916 56.3334 133.916 56.3334C133.916 56.3334 134.767 59.7092 136.186 60.2015C137.605 60.6938 137.605 60.6938 137.605 60.6938C137.605 60.6938 141.293 57.318 141.86 56.3334C142.428 55.4192 140.938 50.0038 139.874 48.8786C138.81 47.683 134.2 47.8237 133.845 47.261C133.491 46.6984 132.285 45.6435 131.15 46.0654C130.015 46.4874 130.228 50.4258 130.228 50.4258C130.228 50.4258 131.717 51.6917 131.788 52.5357C131.859 53.45 131.221 54.6456 131.221 54.6456L131.93 54.9269Z"
      fill="#201251"
    />
<path
      d="M126.256 63.7883C126.256 63.7883 132.285 62.9444 135.76 62.8037C139.236 62.7334 144.698 64.4916 144.698 64.4916L148.67 60.2719L153.777 65.0542C153.777 65.0542 149.45 71.3838 148.031 72.8607C146.613 74.3376 145.62 81.3002 145.265 83.4101C144.981 85.5199 144.13 97.8275 144.13 97.8275C144.13 97.8275 140.442 102.188 125.263 97.4055C125.121 97.2649 125.901 88.3331 125.83 86.1529C125.759 83.9727 123.773 76.5882 123.419 74.7596C122.993 73.0014 116.751 69.3443 116.751 69.3443C116.751 69.3443 115.971 64.9839 118.879 62.874C119.305 63.2257 126.256 63.7883 126.256 63.7883Z"
      fill="#201251"
    />
<path
      d="M112.212 45.9248C112.212 45.9248 109.942 48.0346 109.8 48.8786C109.658 49.7225 112.921 59.4983 112.921 59.4983L118.95 63.0147L116.822 69.485C116.822 69.485 110.297 64.9839 109.303 63.6477C108.381 62.3114 106.679 49.0896 106.679 49.0896C106.679 49.0896 104.551 46.4171 104.409 45.7138C104.267 45.0105 103.771 42.6896 104.126 42.2677C104.48 41.8457 106.892 39.3139 107.247 40.0875C107.601 40.8611 108.878 46.2061 108.878 46.2061C108.878 46.2061 111.644 44.9402 112.212 45.9248Z"
      fill="#E79673"
    />
<path
      d="M125.334 97.4055L121.929 129.335L120.156 163.233L126.043 163.444C126.043 163.444 129.731 140.939 129.731 137.493C129.802 134.047 129.66 129.968 129.66 129.968L133.42 112.878H135.548L139.945 135.102L144.414 162.671L149.166 162.882C149.166 162.882 149.876 145.721 149.166 142.205C148.457 138.689 147.393 135.313 147.393 135.313L145.265 112.245C145.265 112.245 147.18 104.087 144.201 97.6165C143.634 96.6319 125.334 97.4055 125.334 97.4055Z"
      fill="#4C49A2"
    />
<path
      d="M89.3012 61.0455H85.4709V57.2477H83.0593V61.0455H79.2291V63.4367H83.0593V67.2344H85.4709V63.4367H89.3012V61.0455Z"
      fill="#FDBE44"
    />
<path
      d="M53.6232 90.3727C50.2895 90.3727 47.5942 87.7001 47.5942 84.465C47.5942 81.1596 50.2895 78.5574 53.6232 78.5574C56.957 78.5574 59.5814 81.2299 59.5814 84.465C59.6523 87.7001 56.957 90.3727 53.6232 90.3727ZM53.6232 81.5815C52.0628 81.5815 50.786 82.8474 50.786 84.3947C50.786 85.9419 52.0628 87.2078 53.6232 87.2078C55.1837 87.2078 56.4605 85.9419 56.4605 84.3947C56.5314 82.9178 55.1837 81.5815 53.6232 81.5815Z"
      fill="#30C5CC"
    />
<path
      d="M237.9 35.7974H234.07V31.9997H231.658V35.7974H227.828V38.1886H231.658V41.9864H234.07V38.1886H237.9V35.7974Z"
      fill="#30C5CC"
    />
<path
      d="M218.749 9.84605C218.749 11.112 217.685 12.1669 216.408 12.1669C215.131 12.1669 214.067 11.112 214.067 9.84605C214.067 8.58013 215.131 7.52519 216.408 7.52519C217.685 7.52519 218.749 8.58013 218.749 9.84605Z"
      fill="#3D9CFF"
    />
<path
      d="M172.502 51.1291C169.169 51.1291 166.473 48.4566 166.473 45.2215C166.473 41.916 169.169 39.3139 172.502 39.3139C175.836 39.3139 178.46 41.9864 178.46 45.2215C178.531 48.4566 175.836 51.1291 172.502 51.1291ZM172.502 42.338C170.942 42.338 169.665 43.6039 169.665 45.1512C169.665 46.6984 170.942 47.9643 172.502 47.9643C174.063 47.9643 175.34 46.6984 175.34 45.1512C175.41 43.6039 174.063 42.338 172.502 42.338Z"
      fill="#FEBA40"
    />
<path
      d="M204.35 11.8153C201.016 11.8153 198.321 9.14276 198.321 5.90763C198.321 2.60217 201.016 0 204.35 0C207.684 0 210.308 2.6725 210.308 5.90763C210.379 9.14276 207.684 11.8153 204.35 11.8153ZM204.35 3.02414C202.79 3.02414 201.513 4.29006 201.513 5.8373C201.513 7.38454 202.79 8.65046 204.35 8.65046C205.91 8.65046 207.187 7.38454 207.187 5.8373C207.187 4.29006 205.91 3.02414 204.35 3.02414Z"
      fill="#FEBA40"
    />
</g>
<defs>
<clipPath id="clip0_1_2">
<rect width="244" height="201" fill="white" />
</clipPath>
</defs>
</svg>
