<svg width="29" height="29" viewBox="0 0 29 29" fill="none" xmlns="http://www.w3.org/2000/svg">
<path fill-rule="evenodd" clip-rule="evenodd" d="M27.8267 6.18495C27.4215 5.13123 26.8541 4.23961 26.0435 3.51011C25.233 2.78061 24.4224 2.13217 23.3687 1.72689C22.315 1.32161 21.2612 1.07844 19.8833 1.07844C18.5053 0.997387 18.1001 0.997387 14.7768 0.997387C11.4535 0.997387 11.0482 0.997387 9.67027 1.07844C8.29233 1.1595 7.2386 1.32161 6.18488 1.72689C5.13115 2.13217 4.23954 2.69956 3.51004 3.51011C2.78054 4.32067 2.13209 5.13123 1.72682 6.18495C1.32154 7.23868 1.07837 8.2924 1.07837 9.67035C0.997314 11.0483 0.997314 11.4536 0.997314 14.7769C0.997314 18.1001 0.997314 18.5054 1.07837 19.8834C1.15943 21.2613 1.32154 22.315 1.72682 23.3688C2.13209 24.4225 2.69948 25.3141 3.51004 26.0436C4.3206 26.7731 5.13115 27.4215 6.18488 27.8268C7.2386 28.2321 8.29233 28.4753 9.67027 28.4753C11.0482 28.5563 11.4535 28.5563 14.7768 28.5563C18.1001 28.5563 18.5053 28.5563 19.8833 28.4753C21.2612 28.3942 22.315 28.2321 23.3687 27.8268C24.4224 27.4215 25.314 26.8542 26.0435 26.0436C26.773 25.233 27.4215 24.4225 27.8267 23.3688C28.232 22.315 28.4752 21.2613 28.4752 19.8834C28.5562 18.5054 28.5562 18.1001 28.5562 14.7769C28.5562 11.4536 28.5562 11.0483 28.4752 9.67035C28.3941 8.2924 28.232 7.23868 27.8267 6.18495ZM25.2326 19.7209C25.1515 21.0178 24.9894 21.6662 24.7462 22.1525C24.5031 22.801 24.1788 23.2873 23.6925 23.7736C23.2062 24.26 22.7198 24.5842 22.0714 24.8274L21.9744 24.8599C21.4981 25.0204 20.8524 25.2379 19.6397 25.3137H14.7764C11.5342 25.3137 11.1289 25.3137 9.83199 25.2326C8.5351 25.1516 7.88666 24.9895 7.40032 24.7463C6.75188 24.5031 6.26554 24.1789 5.77921 23.6926C5.29287 23.2063 4.96865 22.7199 4.72548 22.0715L4.69292 21.9745C4.53246 21.4981 4.31494 20.8524 4.23915 19.6398V14.7765C4.23915 11.5342 4.23915 11.129 4.32021 9.83207C4.40126 8.53518 4.56337 7.88673 4.80654 7.4004C5.04971 6.75195 5.37393 6.26562 5.86026 5.77928C6.3466 5.29295 6.83293 4.96873 7.48138 4.72556L7.57837 4.693C8.05472 4.53253 8.70043 4.31502 9.91305 4.23923H14.7764C18.0186 4.23923 18.4239 4.23923 19.7208 4.32028C21.0177 4.40134 21.6661 4.56345 22.1525 4.80662C22.8009 5.04978 23.2872 5.37401 23.7736 5.86034C24.2599 6.34667 24.5841 6.83301 24.8273 7.48145L24.8599 7.57844C25.0203 8.05479 25.2378 8.7005 25.3136 9.91313V14.7765C25.3136 18.0187 25.3136 18.424 25.2326 19.7209ZM21.6661 9.42679C22.5167 9.42679 23.2062 8.73728 23.2062 7.88673C23.2062 7.03618 22.5167 6.34667 21.6661 6.34667C20.8156 6.34667 20.1261 7.03618 20.1261 7.88673C20.1261 8.73728 20.8156 9.42679 21.6661 9.42679ZM7.64349 14.7765C7.64349 10.8047 10.8047 7.64356 14.7764 7.64356C18.7481 7.64356 21.9093 10.8047 21.9093 14.7765C21.9093 18.7482 18.7481 21.9094 14.7764 21.9094C10.8047 21.9094 7.64349 18.7482 7.64349 14.7765ZM10.8857 14.7765C10.8857 16.8839 12.6689 18.6671 14.7764 18.6671C16.8838 18.6671 18.6671 16.8839 18.6671 14.7765C18.6671 12.669 16.8838 10.8858 14.7764 10.8858C12.6689 10.8858 10.8857 12.669 10.8857 14.7765Z" fill="#4699C2"/>
</svg>
